Coordinates
version=1
nRows=19
nColumns=24
inDegrees=yes

Units are S.I. units (second, meters, Newtons, ...)
Angles are in degrees.

endheader
time	pelvis_tilt	pelvis_list	pelvis_rotation	pelvis_tx	pelvis_ty	pelvis_tz	hip_flexion_r	hip_adduction_r	hip_rotation_r	knee_angle_r	ankle_angle_r	subtalar_angle_r	mtp_angle_r	hip_flexion_l	hip_adduction_l	hip_rotation_l	knee_angle_l	ankle_angle_l	subtalar_angle_l	mtp_angle_l	lumbar_extension	lumbar_bending	lumbar_rotation
      2.91500000	     -0.91450805	      4.62932370	      0.34914704	     -1.50357096	      0.91547210	      0.20154034	     30.45813179	     -1.43675775	     -2.27450780	    -14.69136638	     11.05345353	     -3.83478200	      0.00000000	    -14.00254976	      8.59905759	      7.79618050	    -14.51148556	     23.97379095	    -10.95889767	      0.00000000	    -14.08164643	     -4.83033538	    -13.35226786
      2.92000000	     -0.93144265	      4.47672364	      0.28809130	     -1.49578414	      0.91447194	      0.20217169	     30.59635295	     -1.17988050	     -1.96200573	    -15.58026984	     10.14557764	     -5.07344966	      0.00000000	    -13.97841992	      8.39544460	      7.27416576	    -15.48445820	     24.02007481	    -10.29561480	      0.00000000	    -14.00971809	     -4.61363699	    -13.22425625
      2.92500000	     -0.98167497	      4.26192132	      0.25746461	     -1.48797726	      0.91355967	      0.20281379	     30.75572884	     -0.88349757	     -1.77399499	    -16.48785309	      9.13665137	     -6.24167629	      0.00000000	    -13.85006404	      8.10715145	      6.69493548	    -16.57980429	     24.04037614	     -9.54728677	      0.00000000	    -13.90115769	     -4.33048402	    -13.11487357
      2.93000000	     -1.05528817	      4.01419818	      0.20127697	     -1.48015017	      0.91270105	      0.20352034	     30.93783244	     -0.53549017	     -1.56002912	    -17.41556870	      8.05591281	     -7.45439844	      0.00000000	    -13.63362840	      7.77281712	      5.98459404	    -17.77840215	     24.02518968	     -8.69831788	      0.00000000	    -13.75444883	     -4.00458323	    -12.97431324
      2.93500000	     -1.14853739	      3.72462986	      0.13641523	     -1.47235077	      0.91195439	      0.20425429	     31.13898965	     -0.14800351	     -1.38772370	    -18.35841784	      6.94958851	     -8.55124724	      0.00000000	    -13.33059962	      7.38544855	      5.24475717	    -19.08319798	     23.90650421	     -7.85367152	      0.00000000	    -13.59141568	     -3.63601903	    -12.82707273
      2.94000000	     -1.26083990	      3.39925096	      0.07281272	     -1.46456546	      0.91130385	      0.20501667	     31.35515936	      0.27681352	     -1.22293009	    -19.31182478	      5.87173917	     -9.57689332	      0.00000000	    -12.93644974	      6.94270501	      4.46390976	    -20.50412923	     23.69181635	     -6.98822987	      0.00000000	    -13.40946262	     -3.22660002	    -12.66916369
      2.94500000	     -1.38842901	      3.04050223	      0.02209792	     -1.45678204	      0.91076000	      0.20578853	     31.57513950	      0.73202410	     -1.06511934	    -20.26485167	      4.86052758	    -10.52244978	      0.00000000	    -12.45323634	      6.44139217	      3.65523822	    -22.04413166	     23.36112141	     -6.10736663	      0.00000000	    -13.21069977	     -2.77807451	    -12.50877116
      2.95000000	     -1.53381667	      2.61573700	     -0.02364738	     -1.44893470	      0.91030170	      0.20652579	     31.80444689	      1.24108954	     -0.99093217	    -21.22371354	      3.94361855	    -11.34121659	      0.00000000	    -11.90275747	      5.86021116	      2.89088487	    -23.66888974	     22.91486025	     -5.27580373	      0.00000000	    -12.97949347	     -2.24127602	    -12.35069050
      2.95500000	     -1.65929682	      2.23358842	     -0.07754590	     -1.44118400	      0.90994040	      0.20738331	     32.00756572	      1.73721605	     -0.80262640	    -22.17880028	      3.13270365	    -12.15085935	      0.00000000	    -11.28127334	      5.27800822	      2.01444004	    -25.42745359	     22.34289288	     -4.34033523	      0.00000000	    -12.78922662	     -1.77642881	    -12.19694413
      2.96000000	     -1.78327949	      1.81834784	     -0.13470838	     -1.43338058	      0.90966071	      0.20822949	     32.18262879	      2.26847582	     -0.63200550	    -23.10417217	      2.45245231	    -12.87812437	      0.00000000	    -10.61485728	      4.64830014	      1.19134007	    -27.25862368	     21.61176634	     -3.48948048	      0.00000000	    -12.59087689	     -1.26756226	    -12.04938498
      2.96500000	     -1.89945599	      1.39318602	     -0.19029973	     -1.42561612	      0.90942885	      0.20913907	     32.33122125	      2.82458692	     -0.41791712	    -24.00725504	      1.88882039	    -13.56325422	      0.00000000	     -9.89440190	      3.98007785	      0.38841372	    -29.17944495	     20.77026501	     -2.66430416	      0.00000000	    -12.41044664	     -0.75812825	    -11.92349795
      2.97000000	     -2.00113133	      0.95359772	     -0.22011235	     -1.41772711	      0.90931816	      0.21003702	     32.40177217	      3.37680778	     -0.30406926	    -24.81728743	      1.53495534	    -14.13835544	      0.00000000	     -9.14891423	      3.26793666	     -0.36356631	    -31.15196982	     19.71898264	     -1.90149064	      0.00000000	    -12.22007653	     -0.23335802	    -11.79413467
      2.97500000	     -2.09527989	      0.50610715	     -0.26749621	     -1.40996852	      0.90920945	      0.21096741	     32.45061459	      3.95998856	     -0.12519625	    -25.59786867	      1.28108071	    -14.69309955	      0.00000000	     -8.34881341	      2.54032968	     -1.04491122	    -33.20511468	     18.59275887	     -1.21355183	      0.00000000	    -12.06451319	      0.30210304	    -11.68819703
      2.98000000	     -2.17417690	      0.05906872	     -0.30591820	     -1.40215657	      0.90918191	      0.21192586	     32.42923902	      4.54168362	      0.01174267	    -26.29419446	      1.20871509	    -15.17352977	      0.00000000	     -7.53082406	      1.79552208	     -1.66685584	    -35.28210699	     17.29654647	     -0.63109271	      0.00000000	    -11.91355322	      0.82431064	    -11.58368500
      2.98500000	     -2.25801106	     -0.37604877	     -0.34317524	     -1.39438351	      0.90917609	      0.21297038	     32.36845242	      5.12822534	      0.15742291	    -26.91152550	      1.26500705	    -15.66297997	      0.00000000	     -6.66398705	      1.04535007	     -2.22054919	    -37.39080176	     15.89904243	     -0.11375868	      0.00000000	    -11.75833706	      1.31702526	    -11.50214202
      2.99000000	     -2.30951794	     -0.84199693	     -0.39968852	     -1.38660213	      0.90925950	      0.21395112	     32.23423817	      5.73445378	      0.23556096	    -27.46870174	      1.50357477	    -15.95185945	      0.00000000	     -5.81285893	      0.28556732	     -2.67503298	    -39.48919173	     14.39521181	      0.20163565	      0.00000000	    -11.64205954	      1.85585133	    -11.36476740
      2.99500000	     -2.37422296	     -1.29127527	     -0.45744859	     -1.37889098	      0.90935106	      0.21499777	     32.07348302	      6.33900559	      0.32952680	    -27.94993779	      1.82366168	    -16.27079045	      0.00000000	     -4.90773601	     -0.46394973	     -3.06701054	    -41.59891473	     12.84814340	      0.42669181	      0.00000000	    -11.51759566	      2.36305110	    -11.24943621
      3.00000000	     -2.44228996	     -1.72920875	     -0.52819960	     -1.37124300	      0.90946445	      0.21607058	     31.88434773	      6.94141308	      0.42846005	    -28.37398340	      2.22132729	    -16.55554044	      0.00000000	     -3.97049057	     -1.19298647	     -3.39763115	    -43.69599760	     11.27642854	      0.49813066	      0.00000000	    -11.39577401	      2.84802991	    -11.13293213
      3.00500000	     -2.51620333	     -2.16154961	     -0.61779072	     -1.36364707	      0.90961625	      0.21715541	     31.66498332	      7.54376333	      0.51995487	    -28.73260824	      2.68838131	    -16.79536646	      0.00000000	     -3.00542538	     -1.89664599	     -3.65976234	    -45.76426724	      9.69969225	      0.39522643	      0.00000000	    -11.27432720	      3.32604468	    -10.98342352
